<?xml version="1.0" encoding="utf-8"?>
<!-- Svg Vector Icons : http://www.onlinewebfonts.com/icon -->
<!DOCTYPE svg PUBLIC "-//W3C//DTD SVG 1.1//EN" "http://www.w3.org/Graphics/SVG/1.1/DTD/svg11.dtd">
<svg version="1.1" xmlns="http://www.w3.org/2000/svg" xmlns:xlink="http://www.w3.org/1999/xlink" x="0px" y="0px" viewBox="0 0 1000 1000" enable-background="new 0 0 1000 1000" xml:space="preserve">
<metadata> Svg Vector Icons : http://www.onlinewebfonts.com/icon </metadata>
<g><g transform="translate(0.000000,511.000000) scale(0.100000,-0.100000)"><path d="M8238.5,3868.3c-63.2-32.6-111.2-118.8-111.2-193.6c0-61.3,21.1-95.8,191.6-314.3c998.4-1284,1295.5-3395.9,720.6-5095.8c-55.6-162.9-107.3-310.5-115-327.7c-9.6-21.1,32.6-61.3,168.7-157.1c97.7-70.9,184-128.4,189.7-128.4c19.2,0,168.6,410.1,243.4,666.9c155.2,527,226.1,1002.3,243.4,1604.1c13.4,482.9-11.5,856.6-82.4,1274.4c-159.1,942.9-550,1862.8-1065.5,2502.8C8464.6,3895.1,8366.9,3939.2,8238.5,3868.3z"/><path d="M241.3,3699.6c-95.8-42.2-134.1-99.7-134.1-205.1c0-78.6,9.6-101.6,57.5-149.5c69-65.2,9363.6-6703.6,9442.2-6743.9c76.7-36.4,168.6-15.3,237.6,55.6c46,47.9,55.6,74.7,55.6,151.4c0,80.5-9.6,103.5-57.5,151.4C9725.6-2929.3,413.7,3703.4,356.2,3714.9C323.7,3720.7,273.8,3713,241.3,3699.6z"/><path d="M5049.5,3709.2c-32.6-9.6-95.8-36.4-138-61.3c-115-67.1-2031.4-1376-2044.8-1397.1c-5.8-9.6,72.8-76.7,176.3-149.5l185.9-134.2l883.5,592.2l881.6,594.1l5.8-1226.5l3.8-1226.5l216.6-155.2l214.6-153.3l5.7,1479.5c3.8,1034.9-1.9,1508.2-15.3,1567.6c-32.6,128.4-92,210.8-180.1,251C5160.7,3728.4,5141.5,3730.3,5049.5,3709.2z"/><path d="M7402.9,2996.3c-84.3-17.2-134.2-65.2-161-153.3c-19.2-65.2-15.3-84.3,26.8-164.8c329.6-640.1,452.3-941,571.1-1410.5c95.8-381.4,134.2-643.9,147.6-1019.5C8002.7-198.4,7951-643,7828.4-1101c-26.8-97.7-42.2-185.9-32.6-193.6c7.7-7.7,92-67.1,185.9-134.2c130.3-93.9,172.5-115,185.9-93.9c59.4,97.7,208.9,785.7,249.1,1144.1c32.6,310.5,13.4,962.1-38.3,1266.8c-88.1,511.7-235.7,992.7-454.2,1481.4c-97.7,218.5-266.4,527-312.4,576.8C7567.7,2992.5,7479.6,3013.5,7402.9,2996.3z"/><path d="M354.3,1850.3c-97.7-44.1-207-172.5-235.7-276c-17.2-59.4-21.1-469.5-17.2-1510.1l5.8-1429.7l57.5-93.9c36.4-57.5,93.9-115,151.4-151.4l93.9-57.5l969.7-9.6l969.7-9.6l1274.4-870.1c701.4-479.1,1312.7-887.3,1358.7-908.4c61.3-26.8,111.2-34.5,178.2-28.8c105.4,11.5,168.6,57.5,231.9,178.2c42.2,76.7,42.2,88.1,47.9,1341.5l5.7,1266.8l-210.8,147.5C5120.4-480.1,5020.8-413,5015-413c-5.7,0-11.5-569.2-11.5-1264.8s-3.8-1264.8-7.7-1264.8c-15.3,0-2274.8,1531.2-2393.6,1621.3l-109.2,84.3h-977.4H538.3V104.4v1341.5h942.9h940.9l-308.5,220.4l-308.5,220.4H1119C494.2,1886.7,425.2,1882.8,354.3,1850.3z"/><path d="M6410.2,1821.5c-93.9-93.9-88.2-151.4,47.9-425.4c128.4-258.7,231.9-551.9,283.6-804.9c46-235.7,47.9-741.7,0-954.4c-17.3-84.3-26.8-159.1-19.2-164.8c57.5-49.8,350.7-249.1,364.1-249.1c23,0,95.8,308.6,124.6,523.2c28.8,226.2,7.7,743.6-40.3,973.6c-86.2,398.6-343,1015.7-465.7,1119.2c-42.2,36.4-78.6,47.9-143.7,47.9C6488.8,1886.7,6465.8,1877.1,6410.2,1821.5z"/><path d="M6345-1438.3c0-149.5,120.7-256.8,260.6-231.9c122.7,23,111.2,51.7-69,180.1c-92,65.2-174.4,118.8-180.1,118.8C6350.8-1371.2,6345-1401.9,6345-1438.3z"/><path d="M7347.3-2304.5c-49.8-93.9-97.7-189.7-105.4-216.6c-21.1-69,15.3-162.9,86.2-222.3c49.8-42.2,72.8-47.9,143.7-40.3c49.8,5.7,101.6,26.8,130.3,53.7c47.9,44.1,208.9,320,197.4,333.5c-9.6,7.7-220.4,161-299,216.6l-59.4,42.2L7347.3-2304.5z"/><path d="M8393.7-3042.4c-55.6-76.7-138-185.9-184-241.5c-101.6-124.6-111.1-216.6-34.5-308.6c97.7-115,224.2-116.9,343-5.8c59.4,55.6,337.3,419.7,337.3,440.8c0,13.4-333.5,253-350.7,253C8499.1-2904.4,8449.3-2967.6,8393.7-3042.4z"/></g></g>
</svg>